<svg xmlns="http://www.w3.org/2000/svg" xml:space="preserve" width="2000" height="547" data-id="lg_NQaM4K4FlZvmGptvbj" data-version="1" viewBox="0 0 2000 547"><g data-padding="20"><g fill="#fff"><path d="M1226.606 185.333h-26.341l-28.34 19.873h46.273q3.293 0 6.409.823a28.81 28.81 0 0 1 22.167 28.165v253.418A41.16 41.16 0 0 0 1267 452.157V226.256a40.57 40.57 0 0 0-40.394-40.923"/><path d="M1219.315 222.199H768.69a8.526 8.526 0 1 1 0-17.051h34.69l11.525-8.291 15.993-11.583h-57.152a40.806 40.806 0 0 0-40.747 40.864v270c0 22.637 18.228 40.923 40.747 40.923h416.7a40.806 40.806 0 0 0 40.747-40.923V234.076c0-6.585-5.35-11.877-11.877-11.877"/><path d="M939.379 193.212a59.092 59.092 0 1 1 117.184 12.817h91.607l57.74-42.922L1089.783 9.94 825.721 206.03h114.48a58.8 58.8 0 0 1-.765-12.817m9.643-180.686L839.305 179.394l171.337-126.298Z"/></g><path fill="transparent" stroke="transparent" d="M723 0h554v547H723z"/></g></svg>