<svg xmlns="http://www.w3.org/2000/svg" xml:space="preserve" width="2000" height="1500" data-id="lg_NQaM4K4FlZvmGptvbj" data-version="1" viewBox="0 0 2000 1500"><path fill="#fff" stroke="transparent" d="M0 0h2000v1500H0z"/><g data-padding="20"><g transform="translate(-1651.786 -1253.045)scale(2.5829)"><path fill="#00d7c0" d="M861.53 754.957h-6.137l-6.603 4.63h10.782q.767 0 1.493.192a6.71 6.71 0 0 1 5.165 6.562v59.047a9.59 9.59 0 0 0 4.713-8.26v-52.636a9.453 9.453 0 0 0-9.412-9.535"/><path fill="#00d7c0" d="M859.832 763.547H754.835a1.987 1.987 0 1 1 0-3.973h8.083l2.685-1.93 3.727-2.7h-13.317a9.51 9.51 0 0 0-9.494 9.521v62.91c0 5.275 4.247 9.536 9.494 9.536h97.092a9.51 9.51 0 0 0 9.494-9.535v-61.06a2.77 2.77 0 0 0-2.767-2.769"/><path fill="#00d7c0" d="M794.606 756.792a13.769 13.769 0 1 1 27.304 2.987h21.346l13.453-10-27.058-35.69-61.527 45.69h26.674a13.7 13.7 0 0 1-.178-2.987m2.246-42.1-25.577 38.88 39.922-29.428Z"/><rect width="429.463" height="73.45" x="554.913" y="699.494" fill="none" rx="0" ry="0" transform="matrix(.97 0 0 .97 351.97 40.55)"/><path fill="#00d7c0" d="M911.296 774.662q-4.04 0-7.6-1.23-3.57-1.23-6.22-3.44t-3.92-5.18q-.63-1.2-.03-2.21t1.99-1.32q1.07-.25 2.08.28 1.01.54 1.52 1.61.82 1.71 2.59 3.06 1.76 1.36 4.26 2.18 2.49.82 5.33.82 3.16 0 5.71-1.01 2.56-1.01 4.11-2.93 1.54-1.93 1.54-4.71 0-3.53-2.71-6.24-2.72-2.72-8.71-3.41-7.64-.82-11.99-4.61-4.36-3.79-4.36-9.34 0-4.04 2.21-6.91 2.21-2.88 6.06-4.39t8.71-1.51q3.66 0 6.53 1.07t4.99 2.93q2.11 1.86 3.63 4.26.75 1.27.6 2.37-.16 1.1-1.17 1.74-1.14.63-2.37.25t-1.86-1.45q-.95-1.71-2.4-2.97t-3.44-2.02-4.7-.76q-4.8-.06-7.89 1.87-3.09 1.92-3.09 5.77 0 2.02 1.04 3.76 1.04 1.73 3.66 3.03 2.62 1.29 7.35 1.86 7.64.88 11.68 4.64 4.04 3.75 4.04 9.87 0 3.54-1.36 6.19t-3.75 4.45q-2.4 1.8-5.53 2.71-3.12.92-6.53.92m30.31-.64q-1.27 0-2.12-.85-.85-.86-.85-2.12v-43.36q0-1.26.85-2.11.85-.86 2.12-.86h12.62q4.73 0 8.36 2.09 3.63 2.08 5.65 5.71t2.02 8.42q0 4.61-2.02 8.21t-5.65 5.62-8.36 2.02h-9.66v14.26q0 1.26-.82 2.12-.82.85-2.14.85m2.96-43.74v20.95h9.66q3.03 0 5.37-1.32 2.33-1.33 3.66-3.66 1.32-2.34 1.32-5.31 0-3.15-1.32-5.55-1.33-2.4-3.66-3.76-2.34-1.35-5.37-1.35Zm65.08 43.74h-28.97q-1.27 0-2.12-.85-.85-.86-.85-2.12v-43.36q0-1.33.85-2.15t2.12-.82h28.97q1.26 0 2.08.79t.82 2.05q0 1.14-.82 1.93t-2.08.79h-26.01v16.16h18.75q1.32 0 2.11.78.79.79.79 1.99t-.79 1.99-2.11.79h-18.75v16.47h26.01q1.26 0 2.08.79t.82 1.93q0 1.26-.82 2.05t-2.08.79m14.96 0q-1.27 0-2.09-.85-.82-.86-.82-2.12v-43.36q0-1.33.82-2.15t2.09-.82q1.39 0 2.33 1.08l28.53 37.8v-35.91q0-1.33.85-2.15.86-.82 2.12-.82t2.08.82.82 2.15v43.36q0 1.26-.82 2.12-.82.85-2.08.85-.63 0-1.26-.25-.64-.26-1.01-.76l-28.6-37.81v35.85q0 1.26-.82 2.12-.82.85-2.14.85m63.75 0h-11.43q-1.26 0-2.11-.85-.86-.86-.86-2.12v-43.36q0-1.33.86-2.15.85-.82 2.11-.82h11.43q5.42 0 9.87 1.8t7.74 5.11q3.28 3.32 5.08 7.8 1.79 4.48 1.79 9.91t-1.79 9.94q-1.8 4.51-5.08 7.83-3.29 3.31-7.74 5.11t-9.87 1.8m-8.46-44v38.7h8.46q5.49 0 9.68-2.5 4.2-2.49 6.63-6.88 2.43-4.38 2.43-10 0-5.68-2.43-10.04-2.43-4.35-6.63-6.81-4.19-2.47-9.68-2.47Zm72.65 44h-26.58q-1.2 0-2.05-.85-.85-.86-.85-2.12v-43.36q0-1.26.85-2.11.85-.86 2.05-.86 1.27 0 2.12.86.85.85.85 2.11v40.52h23.61q1.19 0 2.08.82.88.82.88 2.08 0 1.2-.88 2.06-.89.85-2.08.85m42.79 0h-28.97q-1.26 0-2.12-.85-.85-.86-.85-2.12v-43.36q0-1.33.85-2.15.86-.82 2.12-.82h28.97q1.26 0 2.08.79t.82 2.05q0 1.14-.82 1.93t-2.08.79h-26.01v16.16h18.75q1.33 0 2.12.78.78.79.78 1.99t-.78 1.99q-.79.79-2.12.79h-18.75v16.47h26.01q1.26 0 2.08.79t.82 1.93q0 1.26-.82 2.05t-2.08.79m27.51.64q-4.04 0-7.61-1.23-3.56-1.23-6.21-3.44-2.66-2.21-3.92-5.18-.63-1.2-.03-2.21t1.99-1.32q1.07-.25 2.08.28 1.01.54 1.52 1.61.82 1.71 2.58 3.06 1.77 1.36 4.27 2.18 2.49.82 5.33.82 3.15 0 5.71-1.01t4.1-2.93q1.55-1.93 1.55-4.71 0-3.53-2.71-6.24-2.72-2.72-8.71-3.41-7.64-.82-12-4.61-4.35-3.79-4.35-9.34 0-4.04 2.21-6.91 2.21-2.88 6.06-4.39t8.71-1.51q3.66 0 6.53 1.07t4.99 2.93q2.11 1.86 3.62 4.26.76 1.27.6 2.37-.15 1.1-1.16 1.74-1.14.63-2.37.25t-1.86-1.45q-.95-1.71-2.4-2.97t-3.44-2.02-4.7-.76q-4.8-.06-7.89 1.87-3.1 1.92-3.1 5.77 0 2.02 1.05 3.76 1.04 1.73 3.66 3.03 2.62 1.29 7.35 1.86 7.64.88 11.68 4.64 4.04 3.75 4.04 9.87 0 3.54-1.36 6.19t-3.76 4.45q-2.39 1.8-5.52 2.71-3.12.92-6.53.92m42.79 0q-4.04 0-7.6-1.23-3.57-1.23-6.22-3.44t-3.91-5.18q-.64-1.2-.04-2.21t1.99-1.32q1.08-.25 2.09.28 1.01.54 1.51 1.61.82 1.71 2.59 3.06 1.77 1.36 4.26 2.18t5.33.82q3.16 0 5.71-1.01 2.56-1.01 4.11-2.93 1.54-1.93 1.54-4.71 0-3.53-2.71-6.24-2.71-2.72-8.71-3.41-7.64-.82-11.99-4.61-4.36-3.79-4.36-9.34 0-4.04 2.21-6.91 2.21-2.88 6.06-4.39t8.71-1.51q3.66 0 6.53 1.07t4.99 2.93q2.11 1.86 3.63 4.26.76 1.27.6 2.37t-1.17 1.74q-1.14.63-2.37.25t-1.86-1.45q-.95-1.71-2.4-2.97t-3.44-2.02-4.7-.76q-4.8-.06-7.89 1.87-3.09 1.92-3.09 5.77 0 2.02 1.04 3.76 1.04 1.73 3.66 3.03 2.62 1.29 7.35 1.86 7.64.88 11.68 4.64 4.04 3.75 4.04 9.87 0 3.54-1.36 6.19-1.35 2.65-3.75 4.45t-5.53 2.71q-3.12.92-6.53.92"/><rect width="239.085" height="33.9" x="650.102" y="719.269" fill="none" rx="0" ry="0" transform="matrix(.97 0 0 .97 259.54 95.14)"/><path fill="#00d7c0" d="M893.576 817.932q-.46 0-.8-.34-.33-.33-.33-.8v-20.48q0-.49.33-.81.34-.32.8-.32.7 0 1.02.58l9.82 19.52h-.99l9.64-19.52q.35-.58 1.02-.58.47 0 .79.32t.32.81v20.48q0 .47-.32.8-.32.34-.79.34-.49 0-.83-.34-.33-.33-.33-.8v-17.54l.49.03-8.59 17.57q-.32.55-.99.55-.73 0-1.05-.7l-8.65-17.3.58-.15v17.54q0 .47-.33.8-.34.34-.81.34m34.41.15q-2.33 0-4.17-1.05-1.83-1.04-2.88-2.88-1.05-1.83-1.05-4.16 0-2.36 1.05-4.2t2.88-2.88q1.84-1.05 4.17-1.05t4.15 1.05q1.82 1.04 2.87 2.88t1.08 4.2q0 2.33-1.07 4.16-1.06 1.84-2.88 2.88-1.82 1.05-4.15 1.05m0-2.04q1.69 0 3.03-.78 1.34-.79 2.1-2.16.75-1.37.75-3.11 0-1.75-.75-3.14-.76-1.38-2.1-2.17-1.34-.78-3.03-.78t-3.03.78q-1.34.79-2.11 2.17-.78 1.39-.78 3.14 0 1.74.78 3.11.77 1.37 2.11 2.16 1.34.78 3.03.78m26.13 1.9q-.5 0-.82-.32t-.32-.79v-7.57q0-1.81-.68-2.97-.69-1.17-1.87-1.75-1.18-.59-2.66-.59-1.43 0-2.58.56-1.15.55-1.82 1.51t-.67 2.19h-1.6q.06-1.84.99-3.28t2.47-2.27q1.55-.83 3.44-.83 2.07 0 3.7.86t2.58 2.52.95 4.05v7.57q0 .47-.32.79t-.79.32m-12.53 0q-.52 0-.83-.31-.3-.3-.3-.8v-13.69q0-.53.3-.83.31-.31.83-.31.5 0 .8.31.31.3.31.83v13.69q0 .5-.31.8-.3.31-.8.31m25.8.14q-2.36 0-4.18-1.03t-2.85-2.87q-1.04-1.84-1.04-4.19 0-2.39.98-4.21.98-1.83 2.69-2.87 1.72-1.05 3.97-1.05 2.21 0 3.86 1 1.64 1.01 2.54 2.78.91 1.78.91 4.05 0 .47-.29.75-.29.27-.76.27h-12.38v-1.86h12.61l-1.25.9q.03-1.69-.61-3.03t-1.82-2.09q-1.18-.76-2.81-.76-1.66 0-2.92.78-1.25.79-1.93 2.17-.69 1.39-.69 3.17 0 1.77.77 3.14t2.12 2.16q1.34.78 3.08.78 1.05 0 2.11-.36 1.07-.36 1.71-.92.32-.26.73-.27.41-.02.7.21.38.35.39.76t-.34.7q-.96.82-2.44 1.35-1.49.54-2.86.54m13.41 6.79q-.23 0-.52-.12-.99-.43-.55-1.39l9.4-20.75q.44-.93 1.4-.52.99.41.56 1.37l-9.44 20.74q-.29.67-.85.67m3.24-7.43q-.44.21-.82.08-.38-.14-.61-.57l-6.5-13.46q-.2-.44-.06-.82.15-.38.59-.58.43-.2.81-.07t.59.57l6.38 13.45q.23.44.14.82t-.52.58m25.43.49q-.47 0-.8-.34-.34-.33-.34-.8v-21.61h2.27v21.61q0 .47-.32.8-.32.34-.81.34m8.07-20.69h-16.11q-.47 0-.76-.29t-.29-.72q0-.47.29-.76t.76-.29h16.11q.46 0 .75.29.3.29.3.76 0 .43-.3.72-.29.29-.75.29m6.32 10.88h-1.28q.08-1.81.94-3.23.86-1.43 2.25-2.25 1.38-.81 3.07-.81 1.34 0 2.07.38t.55 1.1q-.11.44-.39.59-.28.14-.67.11t-.89-.06q-1.63-.14-2.9.34t-2.01 1.47-.74 2.36m-1.11 9.82q-.52 0-.81-.29t-.29-.82v-13.72q0-.52.29-.82.29-.29.81-.29.53 0 .82.29.29.3.29.82v13.72q0 .53-.29.82t-.82.29m19.26.14q-2.25 0-4.02-1.06-1.78-1.06-2.81-2.9-1.04-1.83-1.04-4.13 0-2.34 1.07-4.17 1.06-1.84 2.89-2.9 1.84-1.06 4.14-1.06t4.12 1.06 2.89 2.9q1.06 1.83 1.09 4.17l-.9.69q0 2.1-.98 3.78-.98 1.67-2.65 2.65-1.68.97-3.8.97m.23-2.04q1.69 0 3.02-.78 1.32-.79 2.09-2.17.78-1.39.78-3.1 0-1.75-.78-3.12-.77-1.37-2.09-2.17-1.33-.8-3.02-.8-1.66 0-3 .8t-2.13 2.17q-.78 1.37-.78 3.12 0 1.71.78 3.1.79 1.38 2.13 2.17 1.34.78 3 .78m6.96 1.9q-.49 0-.81-.31-.32-.3-.32-.8v-4.98l.55-2.3 1.72.44v6.84q0 .5-.32.8-.32.31-.82.31m12.62.14q-2.3 0-4.1-1.06-1.79-1.06-2.82-2.9-1.04-1.83-1.04-4.13 0-2.34.99-4.17.99-1.84 2.71-2.9t3.97-1.06q1.77 0 3.27.7t2.64 2.09q.32.35.23.75-.09.39-.49.68-.32.23-.72.16-.39-.07-.68-.42-1.69-1.92-4.25-1.92-1.64 0-2.87.78-1.24.79-1.93 2.16-.68 1.37-.68 3.15 0 1.74.73 3.11t2.04 2.16q1.31.78 3 .78 1.13 0 2.08-.3.95-.31 1.67-.95.35-.29.73-.32t.7.23q.35.32.4.73.04.41-.28.7-2.13 1.95-5.3 1.95m22.02-14.47-9.96 9-1.37-1.49 9.96-9q.35-.32.73-.31.38.02.7.37t.3.74q-.01.39-.36.69m-10.69 14.33q-.5 0-.8-.31-.31-.3-.31-.8v-20.54q0-.49.31-.8.3-.3.8-.3.49 0 .8.3.31.31.31.8v20.54q0 .5-.31.8-.31.31-.8.31m10.78-.15q-.38.32-.79.28t-.7-.42l-6.49-7.99 1.57-1.39 6.55 8.07q.29.35.27.74-.03.39-.41.71m12 .29q-2.36 0-4.18-1.03t-2.86-2.87q-1.03-1.84-1.03-4.19 0-2.39.98-4.21.97-1.83 2.69-2.87 1.72-1.05 3.96-1.05 2.22 0 3.86 1 1.65 1.01 2.55 2.78.9 1.78.9 4.05 0 .47-.29.75-.29.27-.75.27h-12.39v-1.86h12.62l-1.25.9q.03-1.69-.62-3.03-.64-1.34-1.82-2.09-1.18-.76-2.81-.76-1.66 0-2.91.78-1.25.79-1.94 2.17-.68 1.39-.68 3.17 0 1.77.77 3.14t2.11 2.16q1.34.78 3.09.78 1.05 0 2.11-.36t1.71-.92q.32-.26.72-.27.41-.02.7.21.38.35.4.76.01.41-.34.7-.96.82-2.45 1.35-1.48.54-2.85.54m12.88-9.96h-1.29q.09-1.81.95-3.23.86-1.43 2.24-2.25 1.39-.81 3.08-.81 1.34 0 2.07.38.72.38.55 1.1-.12.44-.39.59-.28.14-.67.11-.4-.03-.89-.06-1.63-.14-2.9.34t-2.01 1.47-.74 2.36m-1.11 9.82q-.53 0-.82-.29t-.29-.82v-13.72q0-.52.29-.82.29-.29.82-.29.52 0 .81.29.3.3.3.82v13.72q0 .53-.3.82-.29.29-.81.29"/></g><path fill="transparent" stroke="transparent" stroke-width="2.679" d="M250 585.268h1500v329.464H250z"/></g></svg>